<svg xmlns="http://www.w3.org/2000/svg" version="1.1" xmlns:xlink="http://www.w3.org/1999/xlink" xmlns:svgjs="http://svgjs.dev/svgjs" width="1000" height="1000" viewBox="0 0 1000 1000"><rect width="1000" height="1000" fill="#ffffff"></rect><g transform="matrix(0.7,0,0,0.7,150.11896067415722,412.42371703927523)"><svg viewBox="0 0 356 89" data-background-color="#ffffff" preserveAspectRatio="xMidYMid meet" height="250" width="1000" xmlns="http://www.w3.org/2000/svg" xmlns:xlink="http://www.w3.org/1999/xlink"><g id="tight-bounds" transform="matrix(1,0,0,1,-0.06049999999996203,0.03879533431145887)"><svg viewBox="0 0 356.12052 88.92240933137707" height="88.92240933137707" width="356.12052"><g><svg viewBox="0 0 356.12052 88.92240933137707" height="88.92240933137707" width="356.12052"><g><svg viewBox="0 0 356.12052 88.92240933137707" height="88.92240933137707" width="356.12052"><g><path d="M0 88.922v-88.922h356.121v88.922z" fill="#404740" stroke="transparent" stroke-width="0" rx="0%" data-fill-palette-color="tertiary"></path><path d="M3.283 85.639v-82.356h349.554v82.356z" fill="#ffffff" stroke="transparent" stroke-width="0" rx="0%" data-fill-palette-color="quaternary"></path><path d="M9.85 79.073v-69.223h336.421v69.223z" fill="#404740" stroke="transparent" stroke-width="0" data-fill-palette-color="tertiary"></path></g><g transform="matrix(1,0,0,1,19.69974,19.69974)" id="textblocktransform"><svg viewBox="0 0 316.72104 49.52292933137707" height="49.52292933137707" width="316.72104" id="textblock"><g><svg viewBox="0 0 316.72104 49.52292933137707" height="49.52292933137707" width="316.72104"><g transform="matrix(1,0,0,1,0,0)"><svg width="316.72104" viewBox="1.149999976158142 -36.599998474121094 238.52999877929688 37.29999923706055" height="49.52292933137707" data-palette-color="#ffffff"><path d="M13.7 0L1.15 0 1.15-1.05 1.95-1.3Q3-1.7 3.38-2.35 3.75-3 3.75-4.1L3.75-4.1Q3.8-6.95 3.8-9.83 3.8-12.7 3.8-15.6L3.8-15.6 3.8-17.4Q3.8-20.3 3.78-23.18 3.75-26.05 3.75-28.95L3.75-28.95Q3.75-30.15 3.4-30.78 3.05-31.4 1.95-31.75L1.95-31.75 1.15-32 1.15-33.05 15.25-33.05Q21.25-33.05 23.95-30.83 26.65-28.6 26.65-25.2L26.65-25.2Q26.65-22.6 24.75-20.53 22.85-18.45 18.1-17.55L18.1-17.55Q23.6-16.95 26.05-14.7 28.5-12.45 28.5-9.2L28.5-9.2Q28.5-7.6 27.8-5.98 27.1-4.35 25.43-3 23.75-1.65 20.9-0.83 18.05 0 13.7 0L13.7 0ZM10.9-31.6L10.9-17.9 13.25-17.9Q16.65-17.9 18.18-19.43 19.7-20.95 19.7-24.65L19.7-24.65Q19.7-28.5 18.3-30.05 16.9-31.6 13.9-31.6L13.9-31.6 10.9-31.6ZM10.9-16.45L10.9-1.45 13.65-1.45Q17.4-1.45 19.25-3.3 21.1-5.15 21.1-9.25L21.1-9.25Q21.1-13.2 19.33-14.83 17.55-16.45 13.5-16.45L13.5-16.45 10.9-16.45ZM43.25 0L30.75 0 30.75-0.95 31.5-1.2Q32.5-1.45 32.87-2.05 33.25-2.65 33.25-3.65L33.25-3.65 33.25-18.3Q33.2-19.4 32.85-19.98 32.5-20.55 31.5-20.75L31.5-20.75 30.75-20.95 30.75-21.85 38.9-24.75 39.5-24.2 39.95-19.8 39.95-19.45Q40.7-20.85 41.85-22.05 43-23.25 44.35-24 45.7-24.75 47.05-24.75L47.05-24.75Q48.95-24.75 49.9-23.75 50.85-22.75 50.85-21.2L50.85-21.2Q50.85-19.5 49.9-18.63 48.95-17.75 47.6-17.75L47.6-17.75Q45.6-17.75 44.15-19.55L44.15-19.55 44.05-19.65Q43.55-20.25 42.92-20.33 42.3-20.4 41.7-19.7L41.7-19.7Q41.2-19.2 40.77-18.53 40.35-17.85 40-16.95L40-16.95 40-3.85Q40-2.9 40.4-2.27 40.8-1.65 41.75-1.4L41.75-1.4 43.25-0.95 43.25 0ZM61.45 0.7L61.45 0.7Q59.5 0.7 57.9-0.03 56.3-0.75 55.37-2.43 54.45-4.1 54.5-6.85L54.5-6.85 54.65-19.4Q54.65-20.5 54.3-21 53.95-21.5 53.05-21.7L53.05-21.7 52.45-21.9 52.45-22.8 61-24.45 61.55-23.9 61.3-16.85 61.3-5.5Q61.3-3.8 62.22-3.03 63.15-2.25 64.55-2.25L64.55-2.25Q66-2.25 67.17-2.68 68.35-3.1 69.6-3.95L69.6-3.95 69.75-19.35Q69.75-20.5 69.42-20.95 69.1-21.4 68.2-21.65L68.2-21.65 67.65-21.8 67.65-22.7 76-24.45 76.55-23.9 76.4-16.85 76.4-3.75Q76.4-2.7 76.67-2.08 76.95-1.45 77.9-1.15L77.9-1.15 78.55-0.95 78.55 0 70.1 0.5 69.65-2.65Q67.95-1.2 65.95-0.25 63.95 0.7 61.45 0.7ZM92.84 0.7L92.84 0.7Q89.44 0.7 86.69-0.78 83.94-2.25 82.37-5.08 80.79-7.9 80.79-11.95L80.79-11.95Q80.79-16 82.54-18.85 84.29-21.7 87.22-23.23 90.14-24.75 93.64-24.75L93.64-24.75Q96.49-24.75 98.49-23.8 100.49-22.85 101.54-21.38 102.59-19.9 102.59-18.25L102.59-18.25Q102.59-16.85 101.77-16.1 100.94-15.35 99.64-15.35L99.64-15.35Q98.24-15.35 97.37-16.35 96.49-17.35 96.34-18.9L96.34-18.9Q96.29-19.9 96.37-20.6 96.44-21.3 96.34-21.95L96.34-21.95Q96.14-22.8 95.67-23.1 95.19-23.4 94.34-23.4L94.34-23.4Q91.19-23.4 89.52-20.88 87.84-18.35 87.84-12.7L87.84-12.7Q87.84-7.85 89.69-5.25 91.54-2.65 95.44-2.65L95.44-2.65Q97.74-2.65 99.24-3.53 100.74-4.4 101.99-6.05L101.99-6.05 102.79-5.45Q101.54-2.45 98.97-0.88 96.39 0.7 92.84 0.7ZM116.84 0L105.24 0 105.24-0.95 105.99-1.2Q107.69-1.7 107.69-3.65L107.69-3.65 107.69-29.55Q107.69-30.55 107.29-31.08 106.89-31.6 105.89-31.85L105.89-31.85 105.24-32.05 105.24-33 113.99-35.1 114.64-34.65 114.44-27.6 114.44-3.65Q114.44-1.65 116.14-1.15L116.14-1.15 116.84-0.95 116.84 0ZM132.04 0L123.54 0 114.49-12.5 123.34-20.7Q123.99-21.25 124.09-21.93 124.19-22.6 123.24-22.85L123.24-22.85 122.44-23.05 122.44-24 130.24-24 130.24-23.05 128.79-22.7Q127.69-22.4 126.99-21.88 126.29-21.35 125.34-20.5L125.34-20.5 119.84-15.35 128.34-3.7Q129.14-2.65 129.79-2.08 130.44-1.5 131.54-1.1L131.54-1.1 132.04-0.95 132.04 0ZM145.19 0L133.74 0 133.74-0.95 134.54-1.15Q136.19-1.65 136.19-3.6L136.19-3.6 136.19-18.35Q136.14-19.4 135.84-19.98 135.54-20.55 134.54-20.75L134.54-20.75 133.74-20.95 133.74-21.85 141.84-24.75 142.44-24.2 142.79-21.1Q144.59-22.7 146.81-23.73 149.04-24.75 151.19-24.75L151.19-24.75Q154.49-24.75 156.26-22.95 158.04-21.15 158.04-17.45L158.04-17.45 158.04-3.55Q158.04-1.6 159.84-1.1L159.84-1.1 160.39-0.95 160.39 0 148.89 0 148.89-0.95 149.64-1.15Q151.29-1.7 151.29-3.6L151.29-3.6 151.29-18.45Q151.29-20.2 150.54-21 149.79-21.8 148.04-21.8L148.04-21.8Q145.59-21.8 142.94-19.65L142.94-19.65 142.94-3.55Q142.94-1.6 144.69-1.1L144.69-1.1 145.19-0.95 145.19 0ZM174.94-24.75L174.94-24.75Q178.09-24.75 180.34-23.45 182.59-22.15 183.81-19.88 185.04-17.6 185.04-14.65L185.04-14.65Q185.04-14 184.99-13.43 184.94-12.85 184.79-12.35L184.79-12.35 169.74-12.35Q169.79-7.2 171.66-4.95 173.54-2.7 177.14-2.7L177.14-2.7Q179.64-2.7 181.19-3.53 182.74-4.35 184.04-5.85L184.04-5.85 184.84-5.1Q183.34-2.35 180.76-0.83 178.19 0.7 174.64 0.7L174.64 0.7Q171.09 0.7 168.39-0.8 165.69-2.3 164.16-5.13 162.64-7.95 162.64-11.9L162.64-11.9Q162.64-16 164.41-18.85 166.19-21.7 169.01-23.23 171.84-24.75 174.94-24.75ZM174.69-23.3L174.69-23.3Q173.24-23.3 172.16-22.48 171.09-21.65 170.46-19.58 169.84-17.5 169.74-13.75L169.74-13.75 178.69-13.75Q179.24-18.8 178.29-21.05 177.34-23.3 174.69-23.3ZM200.08 0L187.58 0 187.58-0.95 188.33-1.2Q189.33-1.45 189.71-2.05 190.08-2.65 190.08-3.65L190.08-3.65 190.08-18.3Q190.03-19.4 189.68-19.98 189.33-20.55 188.33-20.75L188.33-20.75 187.58-20.95 187.58-21.85 195.73-24.75 196.33-24.2 196.78-19.8 196.78-19.45Q197.53-20.85 198.68-22.05 199.83-23.25 201.18-24 202.53-24.75 203.88-24.75L203.88-24.75Q205.78-24.75 206.73-23.75 207.68-22.75 207.68-21.2L207.68-21.2Q207.68-19.5 206.73-18.63 205.78-17.75 204.43-17.75L204.43-17.75Q202.43-17.75 200.98-19.55L200.98-19.55 200.88-19.65Q200.38-20.25 199.76-20.33 199.13-20.4 198.53-19.7L198.53-19.7Q198.03-19.2 197.61-18.53 197.18-17.85 196.83-16.95L196.83-16.95 196.83-3.85Q196.83-2.9 197.23-2.27 197.63-1.65 198.58-1.4L198.58-1.4 200.08-0.95 200.08 0ZM214.43-20.3L213.08-20.3 212.13-23.9Q211.83-25.35 211.38-27.13 210.93-28.9 210.61-30.48 210.28-32.05 210.28-32.9L210.28-32.9Q210.28-34.65 211.23-35.63 212.18-36.6 213.73-36.6L213.73-36.6Q215.23-36.6 216.21-35.63 217.18-34.65 217.18-32.9L217.18-32.9Q217.18-32.05 216.86-30.48 216.53-28.9 216.11-27.13 215.68-25.35 215.38-23.9L215.38-23.9 214.43-20.3ZM228.88 0.7L228.88 0.7Q226.48 0.7 224.55 0.18 222.63-0.35 220.88-1.3L220.88-1.3 220.88-7.2 222.23-7.2 223.73-4.35Q224.68-2.5 225.9-1.6 227.13-0.7 229.03-0.7L229.03-0.7Q231.38-0.7 232.78-1.73 234.18-2.75 234.18-4.5L234.18-4.5Q234.18-6.1 233.13-7.1 232.08-8.1 229.38-8.95L229.38-8.95 227.18-9.65Q224.23-10.55 222.5-12.38 220.78-14.2 220.78-16.95L220.78-16.95Q220.78-19.1 221.93-20.88 223.08-22.65 225.28-23.7 227.48-24.75 230.63-24.75L230.63-24.75Q232.68-24.75 234.4-24.28 236.13-23.8 237.78-22.95L237.78-22.95 237.48-17.6 236.18-17.6 234.63-20.45Q233.83-22.05 233-22.68 232.18-23.3 230.48-23.3L230.48-23.3Q228.68-23.3 227.3-22.38 225.93-21.45 225.93-19.8L225.93-19.8Q225.93-18.25 227.08-17.28 228.23-16.3 230.78-15.45L230.78-15.45 232.93-14.8Q236.58-13.65 238.13-11.75 239.68-9.85 239.68-7.2L239.68-7.2Q239.68-3.65 236.85-1.48 234.03 0.7 228.88 0.7Z" opacity="1" transform="matrix(1,0,0,1,0,0)" fill="#ffffff" class="undefined-text-0" data-fill-palette-color="quaternary" id="text-0"></path></svg></g></svg></g></svg></g></svg></g><g></g></svg></g><defs></defs></svg><rect width="356.12052" height="88.92240933137707" fill="none" stroke="none" visibility="hidden"></rect></g></svg></g></svg>